<mxfile host="Electron" agent="Mozilla/5.0 (X11; Linux x86_64) AppleWebKit/537.36 (KHTML, like Gecko) draw.io/26.0.9 Chrome/128.0.6613.186 Electron/32.2.5 Safari/537.36" version="26.0.9">
  <diagram name="Page-1" id="Db4WorgynEnIogxk1haC">
    <mxGraphModel dx="1434" dy="838" grid="1" gridSize="10" guides="1" tooltips="1" connect="1" arrows="1" fold="1" page="1" pageScale="1" pageWidth="850" pageHeight="1100" math="0" shadow="0">
      <root>
        <mxCell id="0" />
        <mxCell id="1" parent="0" />
        <mxCell id="nnBLatTeK9YOD4WOsbxm-1" value="18/100" style="rounded=1;whiteSpace=wrap;html=1;fontStyle=1;strokeWidth=4;fontSize=22;" parent="1" vertex="1">
          <mxGeometry x="560" y="300" width="120" height="60" as="geometry" />
        </mxCell>
        <mxCell id="nnBLatTeK9YOD4WOsbxm-2" value="9/100" style="rounded=1;whiteSpace=wrap;html=1;fontStyle=1;strokeWidth=4;fontSize=22;" parent="1" vertex="1">
          <mxGeometry x="560" y="500" width="120" height="60" as="geometry" />
        </mxCell>
        <mxCell id="nnBLatTeK9YOD4WOsbxm-3" value="3/100" style="rounded=1;whiteSpace=wrap;html=1;fontStyle=1;strokeWidth=4;fontSize=22;" parent="1" vertex="1">
          <mxGeometry x="560" y="800" width="120" height="60" as="geometry" />
        </mxCell>
        <mxCell id="Vrk5HFT84BFrqNvaiJcm-2" value="36/100" style="rounded=1;whiteSpace=wrap;html=1;fontStyle=1;strokeWidth=4;fontSize=22;" parent="1" vertex="1">
          <mxGeometry x="560" y="200" width="120" height="60" as="geometry" />
        </mxCell>
        <mxCell id="Vrk5HFT84BFrqNvaiJcm-3" value="18/100" style="rounded=1;whiteSpace=wrap;html=1;fontStyle=1;strokeWidth=4;fontSize=22;" parent="1" vertex="1">
          <mxGeometry x="560" y="400" width="120" height="60" as="geometry" />
        </mxCell>
        <mxCell id="Vrk5HFT84BFrqNvaiJcm-4" value="6/100" style="rounded=1;whiteSpace=wrap;html=1;fontStyle=1;strokeWidth=4;fontSize=22;" parent="1" vertex="1">
          <mxGeometry x="560" y="700" width="120" height="60" as="geometry" />
        </mxCell>
        <mxCell id="Vrk5HFT84BFrqNvaiJcm-5" value="6/100" style="rounded=1;whiteSpace=wrap;html=1;fontStyle=1;strokeWidth=4;fontSize=22;" parent="1" vertex="1">
          <mxGeometry x="560" y="600" width="120" height="60" as="geometry" />
        </mxCell>
        <mxCell id="Vrk5HFT84BFrqNvaiJcm-6" value="3/100" style="rounded=1;whiteSpace=wrap;html=1;fontStyle=1;strokeWidth=4;fontSize=22;" parent="1" vertex="1">
          <mxGeometry x="560" y="900" width="120" height="60" as="geometry" />
        </mxCell>
        <mxCell id="Vrk5HFT84BFrqNvaiJcm-7" value="1/100" style="rounded=1;whiteSpace=wrap;html=1;fontStyle=1;strokeWidth=4;fontSize=22;" parent="1" vertex="1">
          <mxGeometry x="560" y="1000" width="120" height="60" as="geometry" />
        </mxCell>
        <mxCell id="Vrk5HFT84BFrqNvaiJcm-8" value="18/100" style="rounded=1;whiteSpace=wrap;html=1;fontStyle=1;strokeWidth=4;fontSize=22;" parent="1" vertex="1">
          <mxGeometry x="760" y="300" width="120" height="60" as="geometry" />
        </mxCell>
        <mxCell id="Vrk5HFT84BFrqNvaiJcm-9" value="9/100" style="rounded=1;whiteSpace=wrap;html=1;fontStyle=1;strokeWidth=4;fontSize=22;" parent="1" vertex="1">
          <mxGeometry x="760" y="500" width="120" height="60" as="geometry" />
        </mxCell>
        <mxCell id="Vrk5HFT84BFrqNvaiJcm-10" value="3/100" style="rounded=1;whiteSpace=wrap;html=1;fontStyle=1;strokeWidth=4;fontSize=22;" parent="1" vertex="1">
          <mxGeometry x="760" y="900" width="120" height="60" as="geometry" />
        </mxCell>
        <mxCell id="Vrk5HFT84BFrqNvaiJcm-11" value="36/100" style="rounded=1;whiteSpace=wrap;html=1;fontStyle=1;strokeWidth=4;fontSize=22;" parent="1" vertex="1">
          <mxGeometry x="760" y="200" width="120" height="60" as="geometry" />
        </mxCell>
        <mxCell id="Vrk5HFT84BFrqNvaiJcm-12" value="18/100" style="rounded=1;whiteSpace=wrap;html=1;fontStyle=1;strokeWidth=4;fontSize=22;" parent="1" vertex="1">
          <mxGeometry x="760" y="400" width="120" height="60" as="geometry" />
        </mxCell>
        <mxCell id="Vrk5HFT84BFrqNvaiJcm-13" value="6/100" style="rounded=1;whiteSpace=wrap;html=1;fontStyle=1;strokeWidth=4;fontSize=22;" parent="1" vertex="1">
          <mxGeometry x="760" y="700" width="120" height="60" as="geometry" />
        </mxCell>
        <mxCell id="Vrk5HFT84BFrqNvaiJcm-14" value="6/100" style="rounded=1;whiteSpace=wrap;html=1;fontStyle=1;strokeWidth=4;fontSize=22;" parent="1" vertex="1">
          <mxGeometry x="760" y="600" width="120" height="60" as="geometry" />
        </mxCell>
        <mxCell id="Vrk5HFT84BFrqNvaiJcm-15" value="4/100" style="rounded=1;whiteSpace=wrap;html=1;fontStyle=1;strokeWidth=4;fontSize=22;" parent="1" vertex="1">
          <mxGeometry x="760" y="800" width="120" height="60" as="geometry" />
        </mxCell>
        <mxCell id="Vrk5HFT84BFrqNvaiJcm-17" value="18/100" style="rounded=1;whiteSpace=wrap;html=1;fontStyle=1;strokeWidth=4;fontSize=22;" parent="1" vertex="1">
          <mxGeometry x="960" y="300" width="120" height="60" as="geometry" />
        </mxCell>
        <mxCell id="Vrk5HFT84BFrqNvaiJcm-18" value="9/100" style="rounded=1;whiteSpace=wrap;html=1;fontStyle=1;strokeWidth=4;fontSize=22;" parent="1" vertex="1">
          <mxGeometry x="960" y="500" width="120" height="60" as="geometry" />
        </mxCell>
        <mxCell id="Vrk5HFT84BFrqNvaiJcm-20" value="36/100" style="rounded=1;whiteSpace=wrap;html=1;fontStyle=1;strokeWidth=4;fontSize=22;" parent="1" vertex="1">
          <mxGeometry x="960" y="200" width="120" height="60" as="geometry" />
        </mxCell>
        <mxCell id="Vrk5HFT84BFrqNvaiJcm-21" value="18/100" style="rounded=1;whiteSpace=wrap;html=1;fontStyle=1;strokeWidth=4;fontSize=22;" parent="1" vertex="1">
          <mxGeometry x="960" y="400" width="120" height="60" as="geometry" />
        </mxCell>
        <mxCell id="Vrk5HFT84BFrqNvaiJcm-22" value="6/100" style="rounded=1;whiteSpace=wrap;html=1;fontStyle=1;strokeWidth=4;fontSize=22;" parent="1" vertex="1">
          <mxGeometry x="960" y="800" width="120" height="60" as="geometry" />
        </mxCell>
        <mxCell id="Vrk5HFT84BFrqNvaiJcm-23" value="6/100" style="rounded=1;whiteSpace=wrap;html=1;fontStyle=1;strokeWidth=4;fontSize=22;" parent="1" vertex="1">
          <mxGeometry x="960" y="700" width="120" height="60" as="geometry" />
        </mxCell>
        <mxCell id="Vrk5HFT84BFrqNvaiJcm-24" value="7/100" style="rounded=1;whiteSpace=wrap;html=1;fontStyle=1;strokeWidth=4;fontSize=22;" parent="1" vertex="1">
          <mxGeometry x="960" y="600" width="120" height="60" as="geometry" />
        </mxCell>
        <mxCell id="Vrk5HFT84BFrqNvaiJcm-26" value="18/100" style="rounded=1;whiteSpace=wrap;html=1;fontStyle=1;strokeWidth=4;fontSize=22;" parent="1" vertex="1">
          <mxGeometry x="1155" y="300" width="120" height="60" as="geometry" />
        </mxCell>
        <mxCell id="Vrk5HFT84BFrqNvaiJcm-27" value="9/100" style="rounded=1;whiteSpace=wrap;html=1;fontStyle=1;strokeWidth=4;fontSize=22;" parent="1" vertex="1">
          <mxGeometry x="1156" y="600" width="120" height="60" as="geometry" />
        </mxCell>
        <mxCell id="Vrk5HFT84BFrqNvaiJcm-28" value="36/100" style="rounded=1;whiteSpace=wrap;html=1;fontStyle=1;strokeWidth=4;fontSize=22;" parent="1" vertex="1">
          <mxGeometry x="1155" y="200" width="120" height="60" as="geometry" />
        </mxCell>
        <mxCell id="Vrk5HFT84BFrqNvaiJcm-29" value="18/100" style="rounded=1;whiteSpace=wrap;html=1;fontStyle=1;strokeWidth=4;fontSize=22;" parent="1" vertex="1">
          <mxGeometry x="1155" y="400" width="120" height="60" as="geometry" />
        </mxCell>
        <mxCell id="Vrk5HFT84BFrqNvaiJcm-31" value="12/100" style="rounded=1;whiteSpace=wrap;html=1;fontStyle=1;strokeWidth=4;fontSize=22;" parent="1" vertex="1">
          <mxGeometry x="1155" y="500" width="120" height="60" as="geometry" />
        </mxCell>
        <mxCell id="Vrk5HFT84BFrqNvaiJcm-32" value="7/100" style="rounded=1;whiteSpace=wrap;html=1;fontStyle=1;strokeWidth=4;fontSize=22;" parent="1" vertex="1">
          <mxGeometry x="1156" y="700" width="120" height="60" as="geometry" />
        </mxCell>
        <mxCell id="Vrk5HFT84BFrqNvaiJcm-33" value="18/100" style="rounded=1;whiteSpace=wrap;html=1;fontStyle=1;strokeWidth=4;fontSize=22;" parent="1" vertex="1">
          <mxGeometry x="1360" y="300" width="120" height="60" as="geometry" />
        </mxCell>
        <mxCell id="Vrk5HFT84BFrqNvaiJcm-34" value="12/100" style="rounded=1;whiteSpace=wrap;html=1;fontStyle=1;strokeWidth=4;fontSize=22;" parent="1" vertex="1">
          <mxGeometry x="1361" y="600" width="120" height="60" as="geometry" />
        </mxCell>
        <mxCell id="Vrk5HFT84BFrqNvaiJcm-35" value="36/100" style="rounded=1;whiteSpace=wrap;html=1;fontStyle=1;strokeWidth=4;fontSize=22;" parent="1" vertex="1">
          <mxGeometry x="1360" y="200" width="120" height="60" as="geometry" />
        </mxCell>
        <mxCell id="Vrk5HFT84BFrqNvaiJcm-36" value="18/100" style="rounded=1;whiteSpace=wrap;html=1;fontStyle=1;strokeWidth=4;fontSize=22;" parent="1" vertex="1">
          <mxGeometry x="1360" y="400" width="120" height="60" as="geometry" />
        </mxCell>
        <mxCell id="Vrk5HFT84BFrqNvaiJcm-37" value="16/100" style="rounded=1;whiteSpace=wrap;html=1;fontStyle=1;strokeWidth=4;fontSize=22;" parent="1" vertex="1">
          <mxGeometry x="1360" y="500" width="120" height="60" as="geometry" />
        </mxCell>
        <mxCell id="Vrk5HFT84BFrqNvaiJcm-39" value="18/100" style="rounded=1;whiteSpace=wrap;html=1;fontStyle=1;strokeWidth=4;fontSize=22;" parent="1" vertex="1">
          <mxGeometry x="1560" y="400" width="120" height="60" as="geometry" />
        </mxCell>
        <mxCell id="Vrk5HFT84BFrqNvaiJcm-41" value="36/100" style="rounded=1;whiteSpace=wrap;html=1;fontStyle=1;strokeWidth=4;fontSize=22;" parent="1" vertex="1">
          <mxGeometry x="1560" y="200" width="120" height="60" as="geometry" />
        </mxCell>
        <mxCell id="Vrk5HFT84BFrqNvaiJcm-42" value="18/100" style="rounded=1;whiteSpace=wrap;html=1;fontStyle=1;strokeWidth=4;fontSize=22;" parent="1" vertex="1">
          <mxGeometry x="1560" y="500" width="120" height="60" as="geometry" />
        </mxCell>
        <mxCell id="Vrk5HFT84BFrqNvaiJcm-43" value="28/100" style="rounded=1;whiteSpace=wrap;html=1;fontStyle=1;strokeWidth=4;fontSize=22;" parent="1" vertex="1">
          <mxGeometry x="1560" y="300" width="120" height="60" as="geometry" />
        </mxCell>
        <mxCell id="Vrk5HFT84BFrqNvaiJcm-44" value="36/100" style="rounded=1;whiteSpace=wrap;html=1;fontStyle=1;strokeWidth=4;fontSize=22;" parent="1" vertex="1">
          <mxGeometry x="1760" y="300" width="120" height="60" as="geometry" />
        </mxCell>
        <mxCell id="Vrk5HFT84BFrqNvaiJcm-45" value="36/100" style="rounded=1;whiteSpace=wrap;html=1;fontStyle=1;strokeWidth=4;fontSize=22;" parent="1" vertex="1">
          <mxGeometry x="1760" y="200" width="120" height="60" as="geometry" />
        </mxCell>
        <mxCell id="Vrk5HFT84BFrqNvaiJcm-46" value="28/100" style="rounded=1;whiteSpace=wrap;html=1;fontStyle=1;strokeWidth=4;fontSize=22;" parent="1" vertex="1">
          <mxGeometry x="1760" y="400" width="120" height="60" as="geometry" />
        </mxCell>
        <mxCell id="Vrk5HFT84BFrqNvaiJcm-47" value="64/100" style="rounded=1;whiteSpace=wrap;html=1;fontStyle=1;strokeWidth=4;fontSize=22;" parent="1" vertex="1">
          <mxGeometry x="1960" y="200" width="120" height="60" as="geometry" />
        </mxCell>
        <mxCell id="Vrk5HFT84BFrqNvaiJcm-48" value="36/100" style="rounded=1;whiteSpace=wrap;html=1;fontStyle=1;strokeWidth=4;fontSize=22;" parent="1" vertex="1">
          <mxGeometry x="1960" y="300" width="120" height="60" as="geometry" />
        </mxCell>
        <mxCell id="Vrk5HFT84BFrqNvaiJcm-49" value="100/100" style="rounded=1;whiteSpace=wrap;html=1;fontStyle=1;strokeWidth=4;fontSize=22;" parent="1" vertex="1">
          <mxGeometry x="2160" y="200" width="120" height="60" as="geometry" />
        </mxCell>
        <mxCell id="Vrk5HFT84BFrqNvaiJcm-50" value="" style="endArrow=none;dashed=1;html=1;strokeWidth=4;rounded=0;entryX=1;entryY=0.5;entryDx=0;entryDy=0;exitX=0;exitY=0.5;exitDx=0;exitDy=0;" parent="1" source="Vrk5HFT84BFrqNvaiJcm-11" target="Vrk5HFT84BFrqNvaiJcm-2" edge="1">
          <mxGeometry width="50" height="50" relative="1" as="geometry">
            <mxPoint x="420" y="490" as="sourcePoint" />
            <mxPoint x="470" y="440" as="targetPoint" />
          </mxGeometry>
        </mxCell>
        <mxCell id="Vrk5HFT84BFrqNvaiJcm-51" value="" style="endArrow=none;dashed=1;html=1;strokeWidth=4;rounded=0;entryX=1;entryY=0.5;entryDx=0;entryDy=0;exitX=0;exitY=0.5;exitDx=0;exitDy=0;" parent="1" edge="1">
          <mxGeometry width="50" height="50" relative="1" as="geometry">
            <mxPoint x="760" y="329.40999999999997" as="sourcePoint" />
            <mxPoint x="680" y="329.40999999999997" as="targetPoint" />
          </mxGeometry>
        </mxCell>
        <mxCell id="Vrk5HFT84BFrqNvaiJcm-52" value="" style="endArrow=none;dashed=1;html=1;strokeWidth=4;rounded=0;entryX=1;entryY=0.5;entryDx=0;entryDy=0;exitX=0;exitY=0.5;exitDx=0;exitDy=0;" parent="1" edge="1">
          <mxGeometry width="50" height="50" relative="1" as="geometry">
            <mxPoint x="760" y="429.40999999999997" as="sourcePoint" />
            <mxPoint x="680" y="429.40999999999997" as="targetPoint" />
          </mxGeometry>
        </mxCell>
        <mxCell id="Vrk5HFT84BFrqNvaiJcm-54" value="" style="endArrow=none;dashed=1;html=1;strokeWidth=4;rounded=0;entryX=1;entryY=0.5;entryDx=0;entryDy=0;exitX=0;exitY=0.5;exitDx=0;exitDy=0;" parent="1" edge="1">
          <mxGeometry width="50" height="50" relative="1" as="geometry">
            <mxPoint x="760" y="529.41" as="sourcePoint" />
            <mxPoint x="680" y="529.41" as="targetPoint" />
          </mxGeometry>
        </mxCell>
        <mxCell id="Vrk5HFT84BFrqNvaiJcm-55" value="" style="endArrow=none;dashed=1;html=1;strokeWidth=4;rounded=0;entryX=1;entryY=0.5;entryDx=0;entryDy=0;exitX=0;exitY=0.5;exitDx=0;exitDy=0;" parent="1" edge="1">
          <mxGeometry width="50" height="50" relative="1" as="geometry">
            <mxPoint x="760" y="629.41" as="sourcePoint" />
            <mxPoint x="680" y="629.41" as="targetPoint" />
          </mxGeometry>
        </mxCell>
        <mxCell id="Vrk5HFT84BFrqNvaiJcm-56" value="" style="endArrow=none;dashed=1;html=1;strokeWidth=4;rounded=0;entryX=1;entryY=0.5;entryDx=0;entryDy=0;exitX=0;exitY=0.5;exitDx=0;exitDy=0;" parent="1" edge="1">
          <mxGeometry width="50" height="50" relative="1" as="geometry">
            <mxPoint x="760" y="729.41" as="sourcePoint" />
            <mxPoint x="680" y="729.41" as="targetPoint" />
          </mxGeometry>
        </mxCell>
        <mxCell id="Vrk5HFT84BFrqNvaiJcm-62" value="" style="endArrow=none;dashed=1;html=1;strokeWidth=4;rounded=0;entryX=1;entryY=0.5;entryDx=0;entryDy=0;exitX=0;exitY=0.5;exitDx=0;exitDy=0;" parent="1" edge="1">
          <mxGeometry width="50" height="50" relative="1" as="geometry">
            <mxPoint x="960" y="230" as="sourcePoint" />
            <mxPoint x="880" y="230" as="targetPoint" />
          </mxGeometry>
        </mxCell>
        <mxCell id="Vrk5HFT84BFrqNvaiJcm-63" value="" style="endArrow=none;dashed=1;html=1;strokeWidth=4;rounded=0;entryX=1;entryY=0.5;entryDx=0;entryDy=0;exitX=0;exitY=0.5;exitDx=0;exitDy=0;" parent="1" edge="1">
          <mxGeometry width="50" height="50" relative="1" as="geometry">
            <mxPoint x="960" y="329.40999999999997" as="sourcePoint" />
            <mxPoint x="880" y="329.40999999999997" as="targetPoint" />
          </mxGeometry>
        </mxCell>
        <mxCell id="Vrk5HFT84BFrqNvaiJcm-64" value="" style="endArrow=none;dashed=1;html=1;strokeWidth=4;rounded=0;entryX=1;entryY=0.5;entryDx=0;entryDy=0;exitX=0;exitY=0.5;exitDx=0;exitDy=0;" parent="1" edge="1">
          <mxGeometry width="50" height="50" relative="1" as="geometry">
            <mxPoint x="960" y="429.40999999999997" as="sourcePoint" />
            <mxPoint x="880" y="429.40999999999997" as="targetPoint" />
          </mxGeometry>
        </mxCell>
        <mxCell id="Vrk5HFT84BFrqNvaiJcm-65" value="" style="endArrow=none;dashed=1;html=1;strokeWidth=4;rounded=0;entryX=1;entryY=0.5;entryDx=0;entryDy=0;exitX=0;exitY=0.5;exitDx=0;exitDy=0;" parent="1" edge="1">
          <mxGeometry width="50" height="50" relative="1" as="geometry">
            <mxPoint x="960" y="529.41" as="sourcePoint" />
            <mxPoint x="880" y="529.41" as="targetPoint" />
          </mxGeometry>
        </mxCell>
        <mxCell id="Vrk5HFT84BFrqNvaiJcm-66" value="" style="endArrow=oval;html=1;rounded=0;fontStyle=1;strokeWidth=4;endFill=1;" parent="1" edge="1">
          <mxGeometry width="50" height="50" relative="1" as="geometry">
            <mxPoint x="680" y="930" as="sourcePoint" />
            <mxPoint x="720" y="980" as="targetPoint" />
          </mxGeometry>
        </mxCell>
        <mxCell id="Vrk5HFT84BFrqNvaiJcm-68" value="" style="endArrow=none;html=1;rounded=0;fontStyle=1;strokeWidth=4;exitX=1;exitY=0.5;exitDx=0;exitDy=0;" parent="1" source="Vrk5HFT84BFrqNvaiJcm-7" edge="1">
          <mxGeometry width="50" height="50" relative="1" as="geometry">
            <mxPoint x="690" y="940" as="sourcePoint" />
            <mxPoint x="720" y="980" as="targetPoint" />
          </mxGeometry>
        </mxCell>
        <mxCell id="Vrk5HFT84BFrqNvaiJcm-69" value="" style="endArrow=none;html=1;rounded=0;fontStyle=1;strokeWidth=4;exitX=0.008;exitY=0.4;exitDx=0;exitDy=0;dashed=1;exitPerimeter=0;" parent="1" source="Vrk5HFT84BFrqNvaiJcm-15" edge="1">
          <mxGeometry width="50" height="50" relative="1" as="geometry">
            <mxPoint x="690" y="940" as="sourcePoint" />
            <mxPoint x="720" y="980" as="targetPoint" />
          </mxGeometry>
        </mxCell>
        <mxCell id="Vrk5HFT84BFrqNvaiJcm-78" value="" style="endArrow=oval;html=1;rounded=0;fontStyle=1;strokeWidth=4;endFill=1;" parent="1" edge="1">
          <mxGeometry width="50" height="50" relative="1" as="geometry">
            <mxPoint x="880" y="830" as="sourcePoint" />
            <mxPoint x="920" y="880" as="targetPoint" />
          </mxGeometry>
        </mxCell>
        <mxCell id="Vrk5HFT84BFrqNvaiJcm-79" value="" style="endArrow=none;html=1;rounded=0;fontStyle=1;strokeWidth=4;exitX=1;exitY=0.5;exitDx=0;exitDy=0;" parent="1" edge="1">
          <mxGeometry width="50" height="50" relative="1" as="geometry">
            <mxPoint x="880" y="930" as="sourcePoint" />
            <mxPoint x="920" y="880" as="targetPoint" />
          </mxGeometry>
        </mxCell>
        <mxCell id="Vrk5HFT84BFrqNvaiJcm-80" value="" style="endArrow=none;html=1;rounded=0;fontStyle=1;strokeWidth=4;exitX=0;exitY=0.5;exitDx=0;exitDy=0;dashed=1;" parent="1" source="Vrk5HFT84BFrqNvaiJcm-24" edge="1">
          <mxGeometry width="50" height="50" relative="1" as="geometry">
            <mxPoint x="960" y="830" as="sourcePoint" />
            <mxPoint x="920" y="880" as="targetPoint" />
          </mxGeometry>
        </mxCell>
        <mxCell id="Vrk5HFT84BFrqNvaiJcm-81" value="" style="endArrow=oval;html=1;rounded=0;fontStyle=1;strokeWidth=4;endFill=1;" parent="1" edge="1">
          <mxGeometry width="50" height="50" relative="1" as="geometry">
            <mxPoint x="1080" y="730" as="sourcePoint" />
            <mxPoint x="1120" y="780" as="targetPoint" />
          </mxGeometry>
        </mxCell>
        <mxCell id="Vrk5HFT84BFrqNvaiJcm-82" value="" style="endArrow=none;html=1;rounded=0;fontStyle=1;strokeWidth=4;exitX=1;exitY=0.5;exitDx=0;exitDy=0;" parent="1" edge="1">
          <mxGeometry width="50" height="50" relative="1" as="geometry">
            <mxPoint x="1080" y="830" as="sourcePoint" />
            <mxPoint x="1120" y="780" as="targetPoint" />
          </mxGeometry>
        </mxCell>
        <mxCell id="Vrk5HFT84BFrqNvaiJcm-83" value="" style="endArrow=none;html=1;rounded=0;fontStyle=1;strokeWidth=4;exitX=0;exitY=0.5;exitDx=0;exitDy=0;dashed=1;" parent="1" source="Vrk5HFT84BFrqNvaiJcm-31" edge="1">
          <mxGeometry width="50" height="50" relative="1" as="geometry">
            <mxPoint x="1160" y="730" as="sourcePoint" />
            <mxPoint x="1120" y="780" as="targetPoint" />
          </mxGeometry>
        </mxCell>
        <mxCell id="Vrk5HFT84BFrqNvaiJcm-90" value="" style="endArrow=oval;html=1;rounded=0;fontStyle=1;strokeWidth=4;endFill=1;" parent="1" edge="1">
          <mxGeometry width="50" height="50" relative="1" as="geometry">
            <mxPoint x="1277" y="630" as="sourcePoint" />
            <mxPoint x="1317" y="680" as="targetPoint" />
          </mxGeometry>
        </mxCell>
        <mxCell id="Vrk5HFT84BFrqNvaiJcm-91" value="" style="endArrow=none;html=1;rounded=0;fontStyle=1;strokeWidth=4;exitX=1;exitY=0.5;exitDx=0;exitDy=0;" parent="1" edge="1">
          <mxGeometry width="50" height="50" relative="1" as="geometry">
            <mxPoint x="1277" y="730" as="sourcePoint" />
            <mxPoint x="1317" y="680" as="targetPoint" />
          </mxGeometry>
        </mxCell>
        <mxCell id="Vrk5HFT84BFrqNvaiJcm-92" value="" style="endArrow=none;html=1;rounded=0;fontStyle=1;strokeWidth=4;dashed=1;exitX=0;exitY=0.5;exitDx=0;exitDy=0;" parent="1" source="Vrk5HFT84BFrqNvaiJcm-37" edge="1">
          <mxGeometry width="50" height="50" relative="1" as="geometry">
            <mxPoint x="1300" y="540" as="sourcePoint" />
            <mxPoint x="1317" y="680" as="targetPoint" />
          </mxGeometry>
        </mxCell>
        <mxCell id="Vrk5HFT84BFrqNvaiJcm-93" value="" style="endArrow=oval;html=1;rounded=0;fontStyle=1;strokeWidth=4;endFill=1;" parent="1" edge="1">
          <mxGeometry width="50" height="50" relative="1" as="geometry">
            <mxPoint x="1480" y="530" as="sourcePoint" />
            <mxPoint x="1520" y="580" as="targetPoint" />
          </mxGeometry>
        </mxCell>
        <mxCell id="Vrk5HFT84BFrqNvaiJcm-94" value="" style="endArrow=none;html=1;rounded=0;fontStyle=1;strokeWidth=4;exitX=1;exitY=0.5;exitDx=0;exitDy=0;" parent="1" edge="1">
          <mxGeometry width="50" height="50" relative="1" as="geometry">
            <mxPoint x="1480" y="630" as="sourcePoint" />
            <mxPoint x="1520" y="580" as="targetPoint" />
          </mxGeometry>
        </mxCell>
        <mxCell id="Vrk5HFT84BFrqNvaiJcm-95" value="" style="endArrow=none;html=1;rounded=0;fontStyle=1;strokeWidth=4;exitX=0;exitY=0.5;exitDx=0;exitDy=0;dashed=1;" parent="1" source="Vrk5HFT84BFrqNvaiJcm-43" edge="1">
          <mxGeometry width="50" height="50" relative="1" as="geometry">
            <mxPoint x="1560" y="530" as="sourcePoint" />
            <mxPoint x="1520" y="580" as="targetPoint" />
          </mxGeometry>
        </mxCell>
        <mxCell id="Vrk5HFT84BFrqNvaiJcm-102" value="" style="endArrow=oval;html=1;rounded=0;fontStyle=1;strokeWidth=4;endFill=1;" parent="1" edge="1">
          <mxGeometry width="50" height="50" relative="1" as="geometry">
            <mxPoint x="1680" y="430" as="sourcePoint" />
            <mxPoint x="1720" y="480" as="targetPoint" />
          </mxGeometry>
        </mxCell>
        <mxCell id="Vrk5HFT84BFrqNvaiJcm-103" value="" style="endArrow=none;html=1;rounded=0;fontStyle=1;strokeWidth=4;exitX=1;exitY=0.5;exitDx=0;exitDy=0;" parent="1" edge="1">
          <mxGeometry width="50" height="50" relative="1" as="geometry">
            <mxPoint x="1680" y="530" as="sourcePoint" />
            <mxPoint x="1720" y="480" as="targetPoint" />
          </mxGeometry>
        </mxCell>
        <mxCell id="Vrk5HFT84BFrqNvaiJcm-104" value="" style="endArrow=none;html=1;rounded=0;fontStyle=1;strokeWidth=4;exitX=0;exitY=0.5;exitDx=0;exitDy=0;dashed=1;" parent="1" source="Vrk5HFT84BFrqNvaiJcm-44" edge="1">
          <mxGeometry width="50" height="50" relative="1" as="geometry">
            <mxPoint x="1760" y="430" as="sourcePoint" />
            <mxPoint x="1720" y="480" as="targetPoint" />
          </mxGeometry>
        </mxCell>
        <mxCell id="Vrk5HFT84BFrqNvaiJcm-105" value="" style="endArrow=oval;html=1;rounded=0;fontStyle=1;strokeWidth=4;endFill=1;" parent="1" edge="1">
          <mxGeometry width="50" height="50" relative="1" as="geometry">
            <mxPoint x="1880" y="330" as="sourcePoint" />
            <mxPoint x="1920" y="380" as="targetPoint" />
          </mxGeometry>
        </mxCell>
        <mxCell id="Vrk5HFT84BFrqNvaiJcm-106" value="" style="endArrow=none;html=1;rounded=0;fontStyle=1;strokeWidth=4;exitX=1;exitY=0.5;exitDx=0;exitDy=0;" parent="1" edge="1">
          <mxGeometry width="50" height="50" relative="1" as="geometry">
            <mxPoint x="1880" y="430" as="sourcePoint" />
            <mxPoint x="1920" y="380" as="targetPoint" />
          </mxGeometry>
        </mxCell>
        <mxCell id="Vrk5HFT84BFrqNvaiJcm-107" value="" style="endArrow=none;html=1;rounded=0;fontStyle=1;strokeWidth=4;exitX=0;exitY=0.5;exitDx=0;exitDy=0;dashed=1;" parent="1" source="Vrk5HFT84BFrqNvaiJcm-47" edge="1">
          <mxGeometry width="50" height="50" relative="1" as="geometry">
            <mxPoint x="1960" y="330" as="sourcePoint" />
            <mxPoint x="1920" y="380" as="targetPoint" />
          </mxGeometry>
        </mxCell>
        <mxCell id="Vrk5HFT84BFrqNvaiJcm-111" value="" style="endArrow=oval;html=1;rounded=0;fontStyle=1;strokeWidth=4;endFill=1;" parent="1" edge="1">
          <mxGeometry width="50" height="50" relative="1" as="geometry">
            <mxPoint x="2080" y="230" as="sourcePoint" />
            <mxPoint x="2120" y="280" as="targetPoint" />
          </mxGeometry>
        </mxCell>
        <mxCell id="Vrk5HFT84BFrqNvaiJcm-112" value="" style="endArrow=none;html=1;rounded=0;fontStyle=1;strokeWidth=4;exitX=1;exitY=0.5;exitDx=0;exitDy=0;" parent="1" edge="1">
          <mxGeometry width="50" height="50" relative="1" as="geometry">
            <mxPoint x="2080" y="330" as="sourcePoint" />
            <mxPoint x="2120" y="280" as="targetPoint" />
          </mxGeometry>
        </mxCell>
        <mxCell id="Vrk5HFT84BFrqNvaiJcm-113" value="" style="endArrow=none;html=1;rounded=0;fontStyle=1;strokeWidth=4;exitX=0;exitY=0.5;exitDx=0;exitDy=0;dashed=1;" parent="1" edge="1">
          <mxGeometry width="50" height="50" relative="1" as="geometry">
            <mxPoint x="2160" y="230" as="sourcePoint" />
            <mxPoint x="2120" y="280" as="targetPoint" />
          </mxGeometry>
        </mxCell>
        <mxCell id="Vrk5HFT84BFrqNvaiJcm-115" value="" style="endArrow=none;dashed=1;html=1;strokeWidth=4;rounded=0;entryX=1;entryY=0.5;entryDx=0;entryDy=0;exitX=0;exitY=0.5;exitDx=0;exitDy=0;" parent="1" edge="1">
          <mxGeometry width="50" height="50" relative="1" as="geometry">
            <mxPoint x="1157" y="228.8" as="sourcePoint" />
            <mxPoint x="1077" y="228.8" as="targetPoint" />
          </mxGeometry>
        </mxCell>
        <mxCell id="Vrk5HFT84BFrqNvaiJcm-116" value="" style="endArrow=none;dashed=1;html=1;strokeWidth=4;rounded=0;entryX=1;entryY=0.5;entryDx=0;entryDy=0;exitX=0;exitY=0.5;exitDx=0;exitDy=0;" parent="1" edge="1">
          <mxGeometry width="50" height="50" relative="1" as="geometry">
            <mxPoint x="1157" y="328.21" as="sourcePoint" />
            <mxPoint x="1077" y="328.21" as="targetPoint" />
          </mxGeometry>
        </mxCell>
        <mxCell id="Vrk5HFT84BFrqNvaiJcm-117" value="" style="endArrow=none;dashed=1;html=1;strokeWidth=4;rounded=0;entryX=1;entryY=0.5;entryDx=0;entryDy=0;exitX=0;exitY=0.5;exitDx=0;exitDy=0;" parent="1" edge="1">
          <mxGeometry width="50" height="50" relative="1" as="geometry">
            <mxPoint x="1157" y="428.21" as="sourcePoint" />
            <mxPoint x="1077" y="428.21" as="targetPoint" />
          </mxGeometry>
        </mxCell>
        <mxCell id="Vrk5HFT84BFrqNvaiJcm-118" value="" style="endArrow=none;dashed=1;html=1;strokeWidth=4;rounded=0;entryX=1;entryY=0.5;entryDx=0;entryDy=0;exitX=0;exitY=0.5;exitDx=0;exitDy=0;" parent="1" edge="1">
          <mxGeometry width="50" height="50" relative="1" as="geometry">
            <mxPoint x="1355" y="229.79000000000002" as="sourcePoint" />
            <mxPoint x="1275" y="229.79000000000002" as="targetPoint" />
          </mxGeometry>
        </mxCell>
        <mxCell id="Vrk5HFT84BFrqNvaiJcm-119" value="" style="endArrow=none;dashed=1;html=1;strokeWidth=4;rounded=0;entryX=1;entryY=0.5;entryDx=0;entryDy=0;exitX=0;exitY=0.5;exitDx=0;exitDy=0;" parent="1" edge="1">
          <mxGeometry width="50" height="50" relative="1" as="geometry">
            <mxPoint x="1355" y="329.2" as="sourcePoint" />
            <mxPoint x="1275" y="329.2" as="targetPoint" />
          </mxGeometry>
        </mxCell>
        <mxCell id="Vrk5HFT84BFrqNvaiJcm-120" value="" style="endArrow=none;dashed=1;html=1;strokeWidth=4;rounded=0;entryX=1;entryY=0.5;entryDx=0;entryDy=0;exitX=0;exitY=0.5;exitDx=0;exitDy=0;" parent="1" edge="1">
          <mxGeometry width="50" height="50" relative="1" as="geometry">
            <mxPoint x="1355" y="429.2" as="sourcePoint" />
            <mxPoint x="1275" y="429.2" as="targetPoint" />
          </mxGeometry>
        </mxCell>
        <mxCell id="Vrk5HFT84BFrqNvaiJcm-121" value="" style="endArrow=none;dashed=1;html=1;strokeWidth=4;rounded=0;entryX=1;entryY=0.5;entryDx=0;entryDy=0;exitX=0;exitY=0.5;exitDx=0;exitDy=0;" parent="1" edge="1">
          <mxGeometry width="50" height="50" relative="1" as="geometry">
            <mxPoint x="1560" y="229.50000000000003" as="sourcePoint" />
            <mxPoint x="1480" y="229.50000000000003" as="targetPoint" />
          </mxGeometry>
        </mxCell>
        <mxCell id="Vrk5HFT84BFrqNvaiJcm-122" value="" style="endArrow=none;dashed=1;html=1;strokeWidth=4;rounded=0;entryX=1;entryY=0.5;entryDx=0;entryDy=0;exitX=0;exitY=0.5;exitDx=0;exitDy=0;" parent="1" edge="1">
          <mxGeometry width="50" height="50" relative="1" as="geometry">
            <mxPoint x="1760" y="229.50000000000003" as="sourcePoint" />
            <mxPoint x="1680" y="229.50000000000003" as="targetPoint" />
          </mxGeometry>
        </mxCell>
        <mxCell id="Vrk5HFT84BFrqNvaiJcm-123" value="" style="endArrow=none;dashed=1;html=1;strokeWidth=4;rounded=0;entryX=1;entryY=0.5;entryDx=0;entryDy=0;exitX=0;exitY=0.5;exitDx=0;exitDy=0;" parent="1" source="Vrk5HFT84BFrqNvaiJcm-10" target="nnBLatTeK9YOD4WOsbxm-3" edge="1">
          <mxGeometry width="50" height="50" relative="1" as="geometry">
            <mxPoint x="770" y="739.41" as="sourcePoint" />
            <mxPoint x="690" y="739.41" as="targetPoint" />
          </mxGeometry>
        </mxCell>
        <mxCell id="Vrk5HFT84BFrqNvaiJcm-124" value="" style="endArrow=none;dashed=1;html=1;strokeWidth=4;rounded=0;entryX=1;entryY=0.5;entryDx=0;entryDy=0;exitX=0;exitY=0.5;exitDx=0;exitDy=0;" parent="1" edge="1">
          <mxGeometry width="50" height="50" relative="1" as="geometry">
            <mxPoint x="960" y="830" as="sourcePoint" />
            <mxPoint x="880" y="730" as="targetPoint" />
          </mxGeometry>
        </mxCell>
        <mxCell id="Vrk5HFT84BFrqNvaiJcm-125" value="" style="endArrow=none;dashed=1;html=1;strokeWidth=4;rounded=0;entryX=1;entryY=0.5;entryDx=0;entryDy=0;exitX=0;exitY=0.5;exitDx=0;exitDy=0;" parent="1" edge="1">
          <mxGeometry width="50" height="50" relative="1" as="geometry">
            <mxPoint x="960" y="730" as="sourcePoint" />
            <mxPoint x="880" y="630" as="targetPoint" />
          </mxGeometry>
        </mxCell>
        <mxCell id="Vrk5HFT84BFrqNvaiJcm-126" value="" style="endArrow=none;dashed=1;html=1;strokeWidth=4;rounded=0;entryX=1;entryY=0.5;entryDx=0;entryDy=0;exitX=0;exitY=0.5;exitDx=0;exitDy=0;" parent="1" source="Vrk5HFT84BFrqNvaiJcm-27" edge="1">
          <mxGeometry width="50" height="50" relative="1" as="geometry">
            <mxPoint x="1110" y="640" as="sourcePoint" />
            <mxPoint x="1080" y="530" as="targetPoint" />
          </mxGeometry>
        </mxCell>
        <mxCell id="Vrk5HFT84BFrqNvaiJcm-127" value="" style="endArrow=none;dashed=1;html=1;strokeWidth=4;rounded=0;entryX=1;entryY=0.5;entryDx=0;entryDy=0;exitX=0;exitY=0.5;exitDx=0;exitDy=0;" parent="1" source="Vrk5HFT84BFrqNvaiJcm-32" target="Vrk5HFT84BFrqNvaiJcm-24" edge="1">
          <mxGeometry width="50" height="50" relative="1" as="geometry">
            <mxPoint x="1146" y="720" as="sourcePoint" />
            <mxPoint x="1070" y="620" as="targetPoint" />
          </mxGeometry>
        </mxCell>
        <mxCell id="Vrk5HFT84BFrqNvaiJcm-128" value="" style="endArrow=none;dashed=1;html=1;strokeWidth=4;rounded=0;entryX=1;entryY=0.5;entryDx=0;entryDy=0;exitX=0;exitY=0.5;exitDx=0;exitDy=0;" parent="1" source="Vrk5HFT84BFrqNvaiJcm-34" target="Vrk5HFT84BFrqNvaiJcm-31" edge="1">
          <mxGeometry width="50" height="50" relative="1" as="geometry">
            <mxPoint x="1446" y="760" as="sourcePoint" />
            <mxPoint x="1370" y="660" as="targetPoint" />
          </mxGeometry>
        </mxCell>
        <mxCell id="Vrk5HFT84BFrqNvaiJcm-129" value="" style="endArrow=none;dashed=1;html=1;strokeWidth=4;rounded=0;entryX=1;entryY=0.5;entryDx=0;entryDy=0;exitX=0;exitY=0.5;exitDx=0;exitDy=0;" parent="1" source="Vrk5HFT84BFrqNvaiJcm-42" target="Vrk5HFT84BFrqNvaiJcm-36" edge="1">
          <mxGeometry width="50" height="50" relative="1" as="geometry">
            <mxPoint x="1576" y="580" as="sourcePoint" />
            <mxPoint x="1490" y="480" as="targetPoint" />
          </mxGeometry>
        </mxCell>
        <mxCell id="Vrk5HFT84BFrqNvaiJcm-130" value="" style="endArrow=none;dashed=1;html=1;strokeWidth=4;rounded=0;entryX=1;entryY=0.5;entryDx=0;entryDy=0;exitX=0;exitY=0.5;exitDx=0;exitDy=0;" parent="1" source="Vrk5HFT84BFrqNvaiJcm-39" target="Vrk5HFT84BFrqNvaiJcm-33" edge="1">
          <mxGeometry width="50" height="50" relative="1" as="geometry">
            <mxPoint x="1590" y="430" as="sourcePoint" />
            <mxPoint x="1510" y="330" as="targetPoint" />
          </mxGeometry>
        </mxCell>
        <mxCell id="Vrk5HFT84BFrqNvaiJcm-131" value="" style="endArrow=none;dashed=1;html=1;strokeWidth=4;rounded=0;entryX=1;entryY=0.5;entryDx=0;entryDy=0;exitX=0;exitY=0.5;exitDx=0;exitDy=0;" parent="1" source="Vrk5HFT84BFrqNvaiJcm-46" target="Vrk5HFT84BFrqNvaiJcm-43" edge="1">
          <mxGeometry width="50" height="50" relative="1" as="geometry">
            <mxPoint x="1570" y="440" as="sourcePoint" />
            <mxPoint x="1490" y="340" as="targetPoint" />
          </mxGeometry>
        </mxCell>
        <mxCell id="Vrk5HFT84BFrqNvaiJcm-133" value="" style="endArrow=none;dashed=1;html=1;strokeWidth=4;rounded=0;entryX=1;entryY=0.5;entryDx=0;entryDy=0;exitX=0;exitY=0.5;exitDx=0;exitDy=0;" parent="1" source="Vrk5HFT84BFrqNvaiJcm-48" target="Vrk5HFT84BFrqNvaiJcm-45" edge="1">
          <mxGeometry width="50" height="50" relative="1" as="geometry">
            <mxPoint x="1960" y="350" as="sourcePoint" />
            <mxPoint x="1880" y="250" as="targetPoint" />
          </mxGeometry>
        </mxCell>
        <mxCell id="SlbL_iowOyl79sF_oBXh-1" value="" style="endArrow=classic;html=1;rounded=0;" parent="1" edge="1">
          <mxGeometry width="50" height="50" relative="1" as="geometry">
            <mxPoint x="1080" y="1560" as="sourcePoint" />
            <mxPoint x="1360" y="1560" as="targetPoint" />
          </mxGeometry>
        </mxCell>
      </root>
    </mxGraphModel>
  </diagram>
</mxfile>
